<?xml version="1.0" standalone="no"?>
<!DOCTYPE svg PUBLIC "-//W3C//DTD SVG 20010904//EN"
 "http://www.w3.org/TR/2001/REC-SVG-20010904/DTD/svg10.dtd">
<svg version="1.0" xmlns="http://www.w3.org/2000/svg"
 width="1024.000000pt" height="1024.000000pt" viewBox="0 0 1024.000000 1024.000000"
 preserveAspectRatio="xMidYMid meet">

<g transform="translate(0.000000,1024.000000) scale(0.100000,-0.100000)"
fill="#000000" stroke="none">
<path d="M0 5120 l0 -5120 5120 0 5120 0 0 5120 0 5120 -5120 0 -5120 0 0
-5120z m5151 3731 c0 -78 4 -100 22 -132 21 -38 21 -40 5 -70 -15 -26 -18 -56
-17 -202 0 -95 4 -209 7 -254 7 -82 7 -82 -14 -69 -11 8 -31 16 -45 18 -22 3
-24 7 -22 58 2 30 6 137 9 237 6 178 5 182 -17 212 l-23 31 22 30 c18 23 22
43 22 97 0 66 13 178 27 238 6 26 8 21 15 -35 5 -36 9 -107 9 -159z m-583 27
c4 -34 -18 -51 -52 -38 -18 7 -26 17 -26 34 0 50 72 54 78 4z m1547 2 c0 -30
-3 -35 -32 -41 -34 -7 -43 2 -43 45 0 31 9 37 45 34 27 -3 30 -6 30 -38z
m-1499 -259 c30 -85 53 -155 51 -158 -5 -4 -127 334 -126 350 1 17 13 -16 75
-192z m799 124 c0 -10 -6 -20 -12 -22 -8 -3 -13 5 -13 22 0 17 5 25 13 23 6
-3 12 -13 12 -23z m596 -12 c-12 -20 -14 -14 -5 12 4 9 9 14 11 11 3 -2 0 -13
-6 -23z m-1943 -15 c28 -28 1 -75 -37 -63 -11 3 -23 15 -26 26 -12 38 35 65
63 37z m1866 -154 c-92 -198 -214 -484 -243 -570 -30 -90 -29 -114 6 -114 8 0
31 -16 51 -36 l36 -36 33 38 c37 44 40 42 18 -9 -17 -41 -12 -48 42 -53 19 -2
40 -7 46 -13 7 -5 24 -11 38 -12 35 -5 71 25 238 196 271 279 269 276 175 169
-49 -56 -135 -153 -191 -217 -73 -81 -103 -122 -103 -140 0 -33 10 -58 20 -52
5 3 14 -10 20 -29 11 -34 40 -54 60 -41 5 3 10 1 10 -5 0 -39 -381 84 -592
191 -59 30 -188 108 -188 114 0 1 11 1 25 0 16 -2 30 4 38 16 15 20 29 16 21
-6 -6 -16 19 -25 64 -23 29 1 37 8 76 72 24 39 111 205 192 368 145 291 200
388 108 192z m-356 44 c7 -7 12 -25 12 -41 0 -22 -6 -31 -29 -40 -26 -9 -31
-21 -56 -109 -16 -54 -30 -96 -32 -94 -3 2 7 45 21 95 22 80 23 94 11 117 -15
29 -10 52 13 72 20 15 45 15 60 0z m1423 -58 c21 -12 25 -50 7 -68 -7 -7 -27
-12 -45 -12 -31 0 -33 2 -33 35 0 46 31 66 71 45z m-2121 -20 c0 -5 -2 -10 -4
-10 -3 0 -8 5 -11 10 -3 6 -1 10 4 10 6 0 11 -4 11 -10z m-537 -285 c225 -333
222 -330 272 -331 22 0 52 -3 68 -7 16 -3 25 -2 22 4 -4 5 -1 9 5 9 6 0 8 5 4
13 -5 8 -3 8 9 -2 9 -7 28 -11 42 -9 41 8 29 -5 -48 -48 -165 -95 -504 -222
-657 -248 l-35 -6 28 21 c15 11 27 27 27 35 0 7 11 16 24 20 14 3 27 12 30 20
6 15 -66 110 -118 157 -39 35 -6 18 54 -28 134 -103 178 -123 208 -93 7 7 28
11 47 10 35 -3 39 2 36 41 -1 9 3 17 8 17 6 0 11 -5 11 -10 0 -6 10 -14 22
-19 17 -6 28 -2 50 21 15 16 28 33 28 38 0 6 4 10 9 10 4 0 7 18 5 39 -3 39
-19 68 -296 536 -89 150 -49 98 145 -190z m-582 260 c-1 -15 -24 -12 -29 3 -3
9 2 13 12 10 10 -1 17 -7 17 -13z m3793 -56 c63 -49 9 -158 -74 -146 -19 3
-42 8 -51 11 -18 8 -88 -43 -317 -232 -90 -74 -192 -158 -227 -186 -264 -213
-359 -293 -363 -309 -4 -15 -13 -17 -56 -15 -28 2 -51 8 -51 13 0 6 48 43 105
84 58 41 165 120 238 175 74 56 231 174 350 264 271 204 292 224 292 274 0 78
90 117 154 67z m-4106 -25 c16 -11 22 -24 20 -42 -2 -22 -9 -28 -36 -30 -56
-6 -80 32 -45 70 20 22 32 23 61 2z m-635 -81 c10 -10 17 -31 17 -52 0 -40
-22 -21 275 -238 251 -183 456 -328 535 -378 85 -53 132 -94 124 -107 -3 -4
-22 -8 -42 -8 -30 0 -49 11 -97 51 -114 95 -640 516 -723 577 -77 57 -87 61
-122 56 -33 -5 -43 -2 -64 19 -33 33 -33 51 0 83 27 28 63 27 97 -3z m3787 -8
c7 -8 10 -25 6 -40 -5 -21 -12 -25 -41 -25 -42 0 -57 31 -29 61 21 23 47 25
64 4z m-972 -17 c-2 -6 -10 -14 -16 -16 -7 -2 -10 2 -6 12 7 18 28 22 22 4z
m-1740 -170 c18 -18 14 -46 -9 -58 -16 -9 -25 -8 -40 6 -19 17 -25 45 -12 57
11 11 48 8 61 -5z m2908 -75 c-10 -10 -19 5 -10 18 6 11 8 11 12 0 2 -7 1 -15
-2 -18z m-1977 -23 c0 -10 -3 -8 -9 5 -12 27 -12 43 0 25 5 -8 9 -22 9 -30z
m466 -138 c346 -231 744 -376 1184 -432 85 -11 147 -23 151 -31 9 -14 36 -183
49 -314 43 -405 5 -776 -115 -1117 -115 -326 -286 -593 -543 -848 -203 -201
-397 -337 -676 -474 -230 -113 -196 -110 -366 -32 -666 306 -1133 829 -1319
1475 -100 348 -117 741 -52 1206 l17 120 45 3 c161 9 460 71 665 138 238 78
507 214 710 359 88 63 90 64 110 46 11 -10 74 -55 140 -99z m-1065 87 c0 -6
-4 -7 -10 -4 -5 3 -10 11 -10 16 0 6 5 7 10 4 6 -3 10 -11 10 -16z m-349 -6
c13 -16 12 -17 -3 -4 -10 7 -18 15 -18 17 0 8 8 3 21 -13z m975 -4 c3 -6 16
-8 28 -5 17 4 16 1 -9 -19 -39 -32 -43 -31 -41 5 1 31 10 38 22 19z m544 -9
c0 -18 -3 -19 -21 -9 -17 9 -19 13 -8 20 22 14 29 11 29 -11z m910 0 c11 -21
4 -25 -24 -14 -8 3 -12 12 -9 20 7 20 20 17 33 -6z m135 -109 c3 -6 -5 -19
-17 -30 -26 -25 -45 -13 -29 18 12 22 36 28 46 12z m1030 -96 c0 -27 -3 -30
-30 -30 -21 0 -31 5 -33 18 -5 25 17 49 42 45 16 -2 21 -10 21 -33z m-175 -99
c-299 -182 -399 -246 -459 -293 -73 -58 -91 -64 -91 -30 0 23 46 59 104 81 17
6 96 50 176 97 236 141 354 208 365 209 6 0 -37 -29 -95 -64z m-3296 -51 c3
-8 1 -15 -3 -15 -5 0 -11 7 -15 15 -3 8 -1 15 3 15 5 0 11 -7 15 -15z m-751
-157 c48 -28 87 -53 87 -55 0 -4 -106 51 -292 151 -49 26 -88 50 -88 52 0 6
194 -92 293 -148z m-764 94 c12 -22 -3 -42 -31 -42 -21 0 -33 22 -24 45 8 21
43 19 55 -3z m295 -121 c17 -10 82 -40 144 -66 62 -26 111 -49 109 -51 -2 -2
-56 19 -120 46 -64 27 -123 47 -132 44 -8 -3 -26 3 -40 14 -23 18 -22 26 4 31
2 1 18 -7 35 -18z m4721 10 c7 -12 -12 -24 -25 -16 -11 7 -4 25 10 25 5 0 11
-4 15 -9z m485 -6 c34 -41 -25 -92 -75 -65 -20 11 -22 16 -14 39 6 14 16 29
22 33 20 13 54 9 67 -7z m-4580 -71 c0 -2 -9 0 -20 6 -11 6 -20 13 -20 16 0 2
9 0 20 -6 11 -6 20 -13 20 -16z m4390 -18 c-94 -37 -138 -51 -130 -43 9 10
184 76 200 76 8 0 -23 -15 -70 -33z m-4325 2 c16 -7 25 -19 25 -35 0 -12 -2
-23 -5 -23 -13 0 -57 34 -66 51 -12 23 6 25 46 7z m4150 -67 c-47 -21 -92 -36
-85 -28 7 8 103 46 115 46 6 0 -8 -8 -30 -18z m-5494 -57 c18 -22 -1 -49 -36
-49 -31 0 -51 24 -42 49 8 21 60 21 78 0z m5368 12 c-2 -2 -94 -40 -204 -84
-110 -45 -243 -101 -295 -125 -91 -43 -96 -47 -112 -91 -16 -42 -16 -46 0 -55
12 -7 13 -12 4 -23 -27 -33 3 -93 41 -82 9 3 17 1 17 -5 0 -6 -9 -11 -19 -11
-23 0 -38 -19 -24 -29 5 -3 15 -27 22 -52 l13 -47 106 -6 c59 -3 289 -8 512
-12 l405 -6 48 26 c59 32 65 32 105 3 30 -23 42 -24 242 -30 116 -4 218 -10
226 -15 19 -11 -146 -22 -316 -22 -108 0 -118 -2 -150 -25 -42 -31 -59 -31
-96 -2 l-29 22 -455 -2 c-250 -2 -474 -5 -497 -8 -25 -4 -58 -19 -86 -40 -38
-29 -43 -37 -39 -64 2 -17 0 -31 -5 -31 -5 0 -9 -9 -10 -19 -2 -21 32 -48 69
-54 12 -3 111 -19 218 -37 107 -17 260 -44 340 -60 80 -16 261 -46 404 -66
142 -21 253 -40 248 -42 -6 -2 -143 15 -304 37 -161 22 -333 45 -383 51 -49 6
-119 19 -155 29 -36 10 -114 26 -175 36 -60 9 -131 20 -157 24 -46 8 -69 2
-96 -26 -8 -7 -22 -17 -32 -23 -26 -14 -37 -80 -15 -96 15 -11 14 -13 -7 -16
-20 -3 -24 -10 -29 -58 -3 -30 -4 -58 -3 -61 12 -23 667 -272 957 -364 109
-35 119 -36 136 -21 24 21 43 20 75 -5 58 -46 7 -130 -59 -98 -18 9 -33 26
-38 44 -8 29 -18 33 -380 158 -205 71 -429 148 -498 172 -69 25 -145 47 -167
51 -40 6 -43 5 -87 -42 -28 -31 -41 -52 -35 -58 18 -18 12 -56 -9 -56 -16 0
-19 -5 -15 -26 3 -14 0 -40 -5 -59 -8 -28 -6 -36 13 -53 52 -48 688 -372 729
-372 13 0 41 -15 63 -33 47 -40 85 -62 278 -162 131 -67 152 -75 173 -66 66
30 128 -46 69 -84 -32 -21 -75 -3 -83 36 -4 23 -22 35 -137 87 -150 69 -330
142 -350 142 -8 0 -27 10 -43 23 -15 12 -177 96 -359 186 l-331 162 -59 -19
c-35 -11 -59 -25 -59 -33 0 -14 -23 -44 -34 -44 -19 -1 -30 -19 -25 -41 4 -16
1 -26 -8 -29 -8 -3 -14 -16 -13 -27 1 -12 -9 -38 -22 -56 -13 -19 -23 -38 -23
-42 0 -23 138 -129 370 -283 251 -166 553 -376 575 -399 13 -14 -69 41 -178
119 -48 35 -209 144 -356 243 -278 185 -443 278 -464 262 -7 -5 -32 -12 -57
-16 -24 -4 -47 -11 -50 -17 -4 -5 -17 -11 -29 -14 -37 -7 -52 -26 -49 -58 2
-23 -1 -31 -15 -33 -23 -3 -24 -4 -29 -29 -1 -11 -11 -26 -20 -33 -10 -7 -18
-26 -18 -42 0 -23 37 -69 196 -241 108 -118 219 -241 247 -274 28 -33 58 -60
66 -61 34 -2 38 -5 49 -28 7 -17 7 -27 -1 -35 -25 -25 -67 -4 -67 34 0 34
-474 499 -535 525 -57 24 -83 25 -107 3 -10 -9 -33 -17 -51 -17 -29 -1 -32 -4
-31 -31 1 -27 -4 -32 -47 -52 -27 -12 -53 -31 -57 -42 -4 -11 -11 -20 -17 -21
-16 -2 -6 -61 19 -105 12 -22 65 -114 118 -205 93 -161 162 -292 136 -258 -7
9 -74 105 -148 214 -154 226 -214 298 -242 291 -10 -3 -16 -1 -13 4 3 4 -13 6
-36 4 -42 -4 -42 -4 67 70 170 117 258 190 394 325 230 229 391 468 515 765
114 271 179 632 175 975 -1 74 -1 154 -1 177 l1 43 34 -18 c19 -9 32 -20 29
-24 -14 -24 184 38 437 136 177 68 221 84 209 72z m-4022 -68 c-3 -8 -6 -5 -6
6 -1 11 2 17 5 13 3 -3 4 -12 1 -19z m-1090 -24 c-3 -3 -12 -4 -19 -1 -8 3 -5
6 6 6 11 1 17 -2 13 -5z m1089 -287 c0 -307 8 -398 50 -594 71 -337 251 -714
458 -963 86 -104 255 -275 356 -360 81 -68 90 -80 66 -80 -9 0 -16 7 -16 17 0
9 -3 14 -6 10 -3 -3 -17 -2 -30 3 -36 14 -76 22 -104 22 -29 0 -76 -47 -290
-293 -79 -90 -181 -204 -228 -254 l-85 -90 88 120 c49 66 125 165 170 220 168
205 233 288 254 325 l21 38 -40 42 c-25 26 -46 40 -55 36 -9 -3 -15 0 -15 9 0
8 -9 19 -20 25 -12 7 -20 21 -20 38 0 21 -10 33 -45 55 -25 16 -54 40 -64 53
l-19 24 -43 -20 c-63 -30 -115 -62 -167 -106 -108 -90 -632 -488 -572 -434 19
17 130 104 245 192 344 263 465 370 465 409 0 10 -11 30 -25 45 -13 14 -27 35
-30 45 -4 11 -10 17 -15 14 -12 -8 -22 29 -15 57 4 18 -1 26 -23 39 -16 9 -35
30 -43 47 -15 35 -56 56 -103 56 -40 -1 -519 -261 -650 -353 -63 -43 -93 -51
-103 -26 -8 24 25 54 94 85 34 16 106 54 160 86 54 32 145 84 203 117 58 33
149 88 202 123 l97 63 -6 48 c-3 26 -14 59 -24 72 -11 13 -19 32 -19 42 0 15
-7 19 -34 19 -43 0 -53 14 -26 33 24 17 23 63 -2 81 -8 6 -18 21 -22 33 -12
37 -27 42 -91 28 -41 -8 -64 -9 -73 -2 -18 14 -6 22 58 40 l55 16 -1 41 c-1
22 2 43 7 46 15 9 10 20 -13 31 -14 6 -23 19 -23 34 0 23 -2 24 -80 23 -44 -1
-129 -11 -190 -23 -92 -18 -115 -26 -140 -51 -36 -34 -81 -40 -121 -14 -27 19
-75 17 -302 -12 -192 -24 -164 -11 44 20 104 16 212 35 239 43 28 7 86 18 130
23 129 15 327 48 362 60 43 15 59 60 33 90 -15 18 -17 26 -8 45 12 26 5 37
-47 71 -28 18 -55 19 -528 22 -371 3 -506 1 -527 -8 -24 -10 -37 -9 -72 3 -27
10 -98 18 -193 22 -140 6 -165 9 -154 19 3 3 77 8 164 12 106 4 169 12 188 21
23 11 35 12 63 3 25 -8 172 -12 492 -11 510 1 603 5 595 28 -3 8 -1 18 4 22 5
3 14 20 20 37 9 26 8 32 -9 43 -16 10 -17 15 -8 27 7 8 18 14 25 14 20 0 25
82 6 97 -22 18 -154 58 -294 90 -96 22 -122 25 -138 15 -30 -19 -56 -14 -78
14 -18 23 -49 33 -233 79 -117 30 -208 54 -201 54 6 1 99 -17 207 -39 107 -22
215 -40 238 -40 24 0 56 -7 71 -15 15 -8 49 -18 75 -24 26 -5 106 -23 177 -40
183 -43 245 -41 253 12 1 4 8 20 17 37 9 18 13 42 9 65 -5 34 0 55 14 55 4 0
7 -132 8 -293z m3311 261 c-3 -8 -6 -5 -6 6 -1 11 2 17 5 13 3 -3 4 -12 1 -19z
m1541 -30 c33 -33 -12 -80 -52 -54 -27 17 -30 31 -11 50 19 19 46 21 63 4z
m-948 -77 c0 -9 -83 -41 -107 -41 -8 0 -11 5 -8 10 3 6 14 10 24 10 10 0 32 7
47 15 33 17 44 19 44 6z m-205 -71 c-3 -5 -14 -10 -23 -10 -15 0 -15 2 -2 10
20 13 33 13 25 0z m-4815 -60 c0 -5 -7 -10 -16 -10 -8 0 -12 5 -9 10 3 6 10
10 16 10 5 0 9 -4 9 -10z m460 -66 c0 -16 -16 -19 -25 -4 -8 13 4 32 16 25 5
-4 9 -13 9 -21z m5120 -5 c0 -5 -7 -9 -15 -9 -15 0 -20 12 -9 23 8 8 24 -1 24
-14z m-425 -409 c4 -6 -5 -10 -20 -10 -15 0 -24 4 -20 10 3 6 12 10 20 10 8 0
17 -4 20 -10z m-5305 -15 c16 -19 4 -35 -26 -35 -26 0 -32 18 -12 38 16 16 23
15 38 -3z m5367 9 c-3 -3 -12 -4 -19 -1 -8 3 -5 6 6 6 11 1 17 -2 13 -5z
m-5977 -186 c0 -16 -3 -19 -11 -11 -6 6 -8 16 -5 22 11 17 16 13 16 -11z m406
-53 c17 -17 37 -25 62 -26 l37 -2 -35 -6 c-29 -5 -35 -11 -41 -41 -10 -45 -41
-70 -91 -70 -82 0 -128 91 -73 145 34 35 106 35 141 0z m362 8 c-10 -2 -26 -2
-35 0 -10 3 -2 5 17 5 19 0 27 -2 18 -5z m6003 -3 c34 -19 19 -80 -20 -80 -8
0 -25 10 -38 22 l-23 22 22 23 c24 26 31 27 59 13z m-6073 -7 c-10 -2 -26 -2
-35 0 -10 3 -2 5 17 5 19 0 27 -2 18 -5z m-65 -10 c-7 -2 -21 -2 -30 0 -10 3
-4 5 12 5 17 0 24 -2 18 -5z m4782 -3 c19 -8 19 -9 -2 -9 -12 -1 -25 4 -28 9
-7 12 2 12 30 0z m-4858 -6 c-3 -3 -12 -4 -19 -1 -8 3 -5 6 6 6 11 1 17 -2 13
-5z m6096 -1 c-7 -2 -21 -2 -30 0 -10 3 -4 5 12 5 17 0 24 -2 18 -5z m-5223
-83 c0 -20 -15 -25 -45 -13 -15 5 -14 8 6 19 33 18 39 17 39 -6z m4548 -18 c3
-16 -2 -22 -16 -22 -28 0 -45 23 -29 39 17 17 42 9 45 -17z m-4413 -17 c-69
-21 -116 -27 -55 -6 30 11 64 19 75 19 11 0 2 -6 -20 -13z m-210 -55 c-11 -5
-27 -9 -35 -9 -9 0 -8 4 5 9 11 5 27 9 35 9 9 0 8 -4 -5 -9z m-105 -29 c-30
-10 -142 -42 -247 -72 -156 -44 -193 -57 -193 -71 0 -59 -103 -79 -128 -25
-17 35 1 77 40 91 23 8 34 6 58 -12 l30 -23 233 65 c215 60 334 87 207 47z
m5737 -209 c1 -10 -5 -19 -13 -19 -8 0 -14 9 -14 19 0 10 6 18 13 18 7 0 13
-8 14 -18z m-6013 -121 c9 -15 -23 -36 -36 -23 -5 5 -7 15 -4 21 9 13 33 14
40 2z m5086 -121 c0 -5 -7 -10 -15 -10 -8 0 -15 5 -15 10 0 6 7 10 15 10 8 0
15 -4 15 -10z m-4180 -249 c0 -5 -7 -12 -16 -15 -14 -5 -15 -4 -4 9 14 17 20
19 20 6z m-670 -46 c0 -2 -10 -9 -22 -15 -22 -11 -22 -10 -4 4 21 17 26 19 26
11z m-50 -29 c0 -2 -7 -7 -16 -10 -8 -3 -12 -2 -9 4 6 10 25 14 25 6z m-90
-51 c0 -2 -13 -11 -30 -20 -38 -19 -40 -11 -2 9 31 17 32 18 32 11z m-70 -40
c0 -2 -10 -9 -22 -15 -22 -11 -22 -10 -4 4 21 17 26 19 26 11z m690 -40 c-7
-8 -18 -15 -24 -15 -6 0 -2 7 8 15 25 19 32 19 16 0z m-896 -51 c16 -6 22 -50
8 -70 -14 -20 -45 -25 -68 -9 -56 36 -4 104 60 79z m5006 -25 c0 -11 -27 -12
-34 0 -3 4 -3 11 0 14 8 8 34 -3 34 -14z m-685 -38 c3 -5 1 -12 -5 -16 -5 -3
-10 1 -10 9 0 18 6 21 15 7z m-2103 -167 c33 -22 43 -34 33 -38 -8 -3 -15 -2
-15 2 0 4 -11 9 -25 10 -14 1 -25 -2 -25 -7 0 -6 -32 -47 -72 -93 -39 -46 -80
-98 -91 -115 -17 -30 -47 -45 -47 -24 0 5 17 38 38 72 21 35 58 101 83 147
l44 83 -25 21 c-21 17 -19 16 15 -3 22 -13 61 -37 87 -55z m2590 -51 c23 -21
23 -40 -2 -53 -39 -21 -84 25 -54 55 20 19 33 19 56 -2z m-4122 -27 c0 -2 -8
-10 -17 -17 -16 -13 -17 -12 -4 4 13 16 21 21 21 13z m3000 -6 c0 -5 -2 -10
-4 -10 -3 0 -8 5 -11 10 -3 6 -1 10 4 10 6 0 11 -4 11 -10z m-620 -39 c0 -5 3
-18 7 -28 6 -16 5 -16 -10 -4 -19 15 -23 41 -7 41 6 0 10 -4 10 -9z m-2452
-44 c3 -21 -3 -30 -23 -39 -51 -23 -72 36 -22 60 31 15 42 10 45 -21z m4522
-23 c0 -3 -13 4 -30 16 -16 12 -30 24 -30 26 0 3 14 -4 30 -16 17 -12 30 -24
30 -26z m-2042 -42 c-3 -14 -6 -14 -16 6 -7 12 -10 27 -6 33 9 15 27 -16 22
-39z m2073 21 c13 -16 12 -17 -3 -4 -10 7 -18 15 -18 17 0 8 8 3 21 -13z
m-1331 -48 c10 -12 10 -15 -4 -15 -9 0 -16 7 -16 15 0 8 2 15 4 15 2 0 9 -7
16 -15z m1440 -31 c0 -3 -13 4 -30 16 -16 12 -30 24 -30 26 0 3 14 -4 30 -16
17 -12 30 -24 30 -26z m-2508 -84 c-1 -63 -5 -140 -8 -170 -5 -50 -7 -53 -20
-35 -9 12 -14 47 -14 104 -1 47 -5 106 -10 131 -13 65 -4 92 29 88 l26 -3 -3
-115z m2606 49 c6 -52 -61 -64 -74 -14 -8 34 3 47 39 43 26 -2 33 -8 35 -29z
m-5000 -13 c-4 -25 -36 -34 -44 -12 -8 21 13 46 32 39 8 -3 14 -15 12 -27z
m587 4 c0 -22 -29 -18 -33 3 -3 14 1 18 15 15 10 -2 18 -10 18 -18z m3835
-121 c0 -24 -23 -21 -28 4 -2 10 3 17 12 17 10 0 16 -9 16 -21z m108 -57 c2
-7 -6 -12 -17 -12 -21 0 -27 11 -14 24 9 9 26 2 31 -12z m-3707 -29 c-5 -10
-31 -40 -56 -68 -51 -54 -43 -38 18 38 40 48 55 60 38 30z m1246 -137 c-9 -23
-37 -20 -37 3 0 21 20 33 34 20 5 -4 6 -15 3 -23z m-887 9 c0 -8 -4 -15 -10
-15 -5 0 -10 7 -10 15 0 8 5 15 10 15 6 0 10 -7 10 -15z m2244 -1 c9 -8 16
-19 16 -24 0 -10 -28 -40 -37 -40 -11 0 -43 33 -43 45 0 15 21 35 36 35 7 0
20 -7 28 -16z m-1034 -29 c0 -15 -6 -25 -14 -25 -22 0 -30 19 -16 35 18 22 30
18 30 -10z m320 4 c0 -5 -7 -9 -15 -9 -15 0 -20 12 -9 23 8 8 24 -1 24 -14z
m-910 -8 c13 -25 13 -27 -6 -45 -20 -21 -63 -20 -71 1 -4 10 3 24 21 40 33 28
42 29 56 4z m1355 -326 c38 -8 93 -26 122 -40 l52 -26 -31 -52 c-17 -29 -33
-54 -35 -56 -1 -2 -29 8 -62 23 -113 50 -251 29 -251 -40 0 -38 31 -59 121
-83 110 -29 160 -47 201 -74 92 -62 90 -219 -4 -290 -106 -80 -320 -76 -463 8
-42 24 -45 28 -32 43 8 10 24 35 37 58 l22 41 68 -35 c55 -28 83 -36 142 -39
84 -5 118 8 132 50 17 47 -20 72 -154 108 -63 16 -132 41 -153 55 -68 45 -95
142 -62 222 30 70 80 107 175 128 73 16 93 16 175 -1z m-3144 -36 c183 -86
255 -289 167 -467 -29 -57 -85 -106 -168 -146 l-65 -31 -202 -3 -203 -4 0 342
0 342 208 -4 c199 -3 209 -4 263 -29z m741 -76 c26 -60 94 -213 152 -341 l105
-233 -87 3 -87 3 -25 68 -24 67 -162 0 -161 0 -27 -70 -28 -70 -84 0 c-77 0
-83 1 -74 18 10 17 262 581 283 635 11 26 13 27 92 27 l81 0 46 -107z m806 78
c94 -42 139 -123 130 -235 -7 -79 -34 -128 -94 -166 l-44 -27 68 -92 c37 -51
73 -101 81 -112 13 -18 10 -19 -75 -19 l-89 0 -70 100 -70 99 -67 1 -68 0 -1
-92 c-1 -51 -1 -96 0 -100 0 -5 -35 -8 -79 -8 l-80 0 0 341 0 341 203 -4 c186
-3 206 -5 255 -27z m432 -128 l0 -158 153 158 152 159 89 -4 89 -3 -98 -105
c-55 -58 -118 -125 -141 -150 l-43 -45 148 -185 149 -185 -90 -3 c-50 -1 -95
2 -102 7 -6 5 -56 66 -111 135 l-100 125 -47 -47 -48 -46 0 -88 0 -88 -77 0
-78 0 3 340 3 340 74 0 75 0 0 -157z m1645 -183 l0 -340 -77 0 -78 0 0 340 0
340 78 0 77 0 0 -340z m649 311 c73 -29 139 -89 174 -156 35 -68 43 -198 17
-276 -25 -74 -108 -157 -190 -190 -55 -21 -77 -24 -262 -27 l-203 -3 0 341 0
342 203 -4 c183 -4 208 -6 261 -27z m876 -36 l0 -65 -185 0 -185 0 0 -75 0
-75 160 0 160 0 0 -60 0 -59 -157 -3 -158 -3 -3 -72 -3 -73 191 0 190 0 0 -65
0 -65 -270 0 -270 0 0 340 0 340 265 0 265 0 0 -65z m-3571 -1100 c47 -102 88
-182 91 -178 4 5 30 62 60 128 29 66 66 146 82 178 l28 57 65 0 c36 0 65 -2
65 -5 0 -6 -116 -255 -185 -397 l-57 -118 -67 0 -68 0 -81 168 c-44 92 -87
183 -95 202 -8 19 -27 61 -41 93 l-26 57 73 0 72 0 84 -185z m902 158 c109
-49 143 -182 68 -267 -43 -49 -98 -68 -216 -74 l-102 -5 -3 -70 -3 -69 -65 -2
-65 -1 -3 259 -2 258 172 -4 c148 -3 180 -7 219 -25z m474 -97 c62 -67 126
-137 143 -156 l31 -35 1 158 0 157 69 0 69 0 1 -254 2 -253 -23 -7 c-13 -3
-39 -6 -58 -6 -32 0 -46 12 -175 152 l-140 152 -3 -153 -3 -152 -67 3 -67 3
-3 245 c-1 134 0 251 3 258 3 9 21 12 56 11 l51 -3 113 -120z m-1731 -102 c26
-10 19 -43 -10 -50 -15 -4 -88 -2 -163 5 -76 6 -198 11 -272 11 -73 0 -172 3
-219 8 -74 6 -48 8 190 18 353 14 455 15 474 8z m2736 -11 c213 -8 210 -21 -5
-22 -66 -1 -194 -6 -285 -12 -171 -12 -220 -6 -220 25 0 27 9 27 510 9z"/>
<path d="M4995 7799 c-328 -217 -776 -381 -1180 -429 -49 -6 -90 -12 -92 -13
-11 -12 -36 -285 -40 -451 -6 -213 3 -353 33 -526 46 -257 169 -569 311 -785
222 -336 530 -600 932 -797 l163 -81 172 86 c280 140 473 280 672 487 165 171
266 315 373 533 138 279 198 514 222 872 10 146 10 196 -5 355 -9 102 -21 213
-27 246 l-11 62 -96 12 c-247 30 -432 76 -649 161 -194 76 -359 160 -526 267
-71 45 -129 82 -130 81 -1 0 -56 -36 -122 -80z m308 -428 c72 -25 172 -95 218
-153 97 -120 121 -196 123 -393 l1 -150 50 -6 c85 -11 139 -49 170 -121 13
-32 15 -99 15 -440 0 -234 -4 -418 -10 -437 -12 -43 -52 -86 -105 -114 -37
-20 -63 -22 -375 -30 -184 -4 -457 -6 -606 -4 -260 4 -272 5 -311 27 -23 12
-51 36 -63 52 -48 65 -50 84 -50 515 0 451 -1 443 69 506 49 44 78 57 129 57
l37 0 3 138 c2 75 8 162 13 192 32 162 190 327 359 375 77 21 254 14 333 -14z
m-839 -2069 c3 -5 -1 -9 -9 -9 -8 0 -12 4 -9 9 3 4 7 8 9 8 2 0 6 -4 9 -8z
m126 -109 c0 5 21 -7 48 -26 65 -48 200 -127 305 -178 82 -40 104 -61 75 -72
-32 -11 -79 7 -192 74 -178 107 -286 178 -286 189 0 16 34 30 42 17 4 -7 8 -8
8 -4z m594 -268 c-10 -8 -26 -14 -34 -14 -9 0 -4 6 10 14 33 19 49 19 24 0z
m-66 -16 c15 -9 15 -10 -2 -4 -11 3 -23 0 -28 -7 -6 -10 -8 -10 -8 0 0 6 -6
12 -14 12 -8 0 -17 4 -20 9 -7 11 51 4 72 -10z"/>
<path d="M5022 7186 c-88 -29 -159 -98 -193 -187 -15 -39 -19 -77 -19 -184 l0
-135 313 0 312 0 -5 152 c-4 118 -9 161 -23 188 -52 105 -153 171 -272 176
-42 3 -87 -2 -113 -10z"/>
<path d="M4513 6570 c-63 -38 -62 -36 -63 -485 -1 -354 1 -410 14 -431 36 -54
27 -53 646 -53 540 -1 576 1 616 18 75 34 74 28 74 473 0 362 -1 396 -18 428
-38 72 -20 70 -662 70 -553 0 -576 -1 -607 -20z m705 -187 c46 -34 72 -81 72
-130 0 -53 -11 -76 -58 -125 l-35 -37 5 -89 c5 -88 -2 -132 -16 -97 -5 14 -15
16 -52 11 -27 -3 -52 -13 -61 -23 -8 -10 -12 -13 -9 -6 4 6 -1 16 -10 21 -15
8 -16 21 -11 98 l6 89 -35 29 c-40 32 -64 79 -64 126 0 59 50 129 110 153 32
13 130 1 158 -20z m-128 -573 c21 -7 19 -8 -17 -9 -24 -1 -43 4 -43 9 0 12 24
12 60 0z m120 0 c0 -5 -21 -9 -47 -8 l-48 1 45 7 c25 4 46 8 48 8 1 1 2 -2 2
-8z"/>
<path d="M2450 3488 c0 -58 3 -153 7 -213 l6 -107 101 4 c115 5 167 25 210 81
51 67 51 187 1 253 -45 59 -95 77 -217 82 l-108 4 0 -104z"/>
<path d="M3372 3530 c-6 -14 -26 -59 -45 -100 -60 -131 -65 -120 57 -120 l105
0 -34 80 c-75 174 -71 168 -83 140z"/>
<path d="M4012 3478 l3 -113 100 4 c143 5 175 26 175 113 0 48 -23 82 -67 99
-13 5 -67 9 -119 9 l-95 0 3 -112z"/>
<path d="M6730 3381 l0 -211 88 0 c98 0 144 10 193 43 70 46 100 167 64 254
-36 87 -91 115 -237 121 l-108 5 0 -212z"/>
<path d="M5002 2553 l3 -88 50 -3 c103 -7 165 26 165 87 0 69 -34 91 -145 91
l-76 0 3 -87z"/>
</g>
</svg>
